<svg width="46" height="46" viewBox="0 0 46 46" fill="none" xmlns="http://www.w3.org/2000/svg">
    <path d="M33.908 10.71a5.585 5.585 0 0 0-6.954-4.034l-2.36.674a4.205 4.205 0 0 0-1.582.863 4.2 4.2 0 0 0-1.586-.863l-2.367-.673a5.57 5.57 0 0 0-6.888 3.834c-.021.067-.038.136-.056.205a6.946 6.946 0 0 0-5.635 6.806v9.583a6.96 6.96 0 0 0 6.944 6.944h8.121v2.55H17.52a1.467 1.467 0 0 0 0 2.93h11.01a1.466 1.466 0 1 0 .055-2.932.402.402 0 0 0-.107 0h-4.014v-2.55h8.123a6.961 6.961 0 0 0 6.942-6.942v-9.583a6.946 6.946 0 0 0-5.621-6.812zM21.545 21.323l-4.74-1.355a2.658 2.658 0 0 1-1.916-2.54v-5.376a2.65 2.65 0 0 1 1.056-2.109 2.653 2.653 0 0 1 2.311-.425l2.363.673a1.284 1.284 0 0 1 .924 1.226l.002 9.906zm9.584-3.895a2.662 2.662 0 0 1-1.917 2.54l-4.742 1.355v-9.929a1.284 1.284 0 0 1 .924-1.226l2.363-.673a2.643 2.643 0 0 1 3.371 2.543v5.39zm-15.142 5.367 4.734 1.35a8.307 8.307 0 0 0 4.571 0l4.727-1.35a5.616 5.616 0 0 0 4.038-5.357v-3.642a4.025 4.025 0 0 1 2.542 3.726v9.583a4.025 4.025 0 0 1-4.014 4.025H13.42a4.025 4.025 0 0 1-4.014-4.025v-9.583a4.025 4.025 0 0 1 2.542-3.72v3.641a5.619 5.619 0 0 0 4.051 5.342l-.011.01z" fill="#5A5E6A"/>
</svg>
