<svg width="41" height="42" viewBox="0 0 41 42" fill="none" xmlns="http://www.w3.org/2000/svg">
    <path d="M34.068 35.606a1.104 1.104 0 0 1-.79-.33l-7.795-7.858a.658.658 0 0 1-.097-.147l-.036-.063-.01-.02-.152-.257-.233.191a11.727 11.727 0 0 1-7.434 2.675 11.714 11.714 0 0 1-11.7-11.702 11.716 11.716 0 0 1 11.7-11.703 11.715 11.715 0 0 1 11.703 11.703 11.567 11.567 0 0 1-2.502 7.208l-.187.237.306.171a.91.91 0 0 1 .22.147l7.797 7.858a1.106 1.106 0 0 1 .322.788 1.1 1.1 0 0 1-1.112 1.102zM17.52 8.614a9.494 9.494 0 0 0-9.482 9.481 9.491 9.491 0 0 0 9.482 9.48 9.493 9.493 0 0 0 9.482-9.48 9.493 9.493 0 0 0-9.482-9.48z" fill="#BEC1C7"/>
</svg>
